<?xml version="1.0" standalone="no"?>
<!DOCTYPE svg PUBLIC "-//W3C//DTD SVG 20010904//EN"
 "http://www.w3.org/TR/2001/REC-SVG-20010904/DTD/svg10.dtd">
<svg version="1.0" xmlns="http://www.w3.org/2000/svg"
 width="2560.000000pt" height="2560.000000pt" viewBox="0 0 2560.000000 2560.000000"
 preserveAspectRatio="xMidYMid meet">
<metadata>
Created by potrace 1.11, written by Peter Selinger 2001-2013
</metadata>
<g transform="translate(0.000000,2560.000000) scale(0.100000,-0.100000)"
fill="#000000" stroke="none">
<path d="M19634 18721 c-264 -91 -800 -498 -1524 -1155 -506 -460 -865 -803
-1614 -1541 -1542 -1519 -2930 -2984 -4521 -4770 -105 -118 -609 -705 -699
-815 -43 -52 -83 -99 -89 -105 -12 -12 75 156 331 635 532 997 1478 2711 2497
4525 940 1672 989 1762 1195 2150 258 486 291 566 257 631 -86 166 -492 314
-859 314 -172 0 -303 -36 -379 -105 -55 -49 -72 -49 -169 0 -161 81 -270 78
-467 -15 -177 -84 -376 -227 -703 -506 -162 -139 -784 -763 -1052 -1056 -858
-938 -2044 -2365 -3087 -3713 -1736 -2245 -3947 -5426 -4556 -6553 -143 -265
-197 -403 -197 -501 1 -242 165 -443 463 -566 180 -74 451 -140 660 -161 164
-16 250 51 368 286 890 1763 2211 3807 4010 6205 929 1239 1653 2141 2540
3165 211 243 625 708 629 705 2 -1 -39 -74 -91 -161 -422 -712 -1185 -2111
-1845 -3379 -1168 -2247 -1864 -3671 -2018 -4131 -69 -205 -38 -354 107 -519
121 -138 334 -268 514 -313 84 -21 272 -20 355 1 139 37 186 73 590 451 244
228 1276 1258 1815 1811 1048 1076 1989 2051 2679 2775 176 184 421 441 545
570 124 129 313 327 420 440 107 113 287 302 400 420 114 118 431 451 706 740
847 889 1296 1356 1280 1330 -5 -8 -90 -127 -189 -265 -1412 -1963 -2619
-3750 -3643 -5390 -578 -927 -943 -1642 -1049 -2055 -118 -462 195 -994 681
-1158 160 -54 428 -78 583 -52 323 54 834 332 1437 784 1031 772 1833 1582
1931 1951 20 73 18 113 -15 280 -17 83 -42 242 -56 355 -37 284 -60 417 -86
486 -23 61 -66 114 -93 114 -22 0 -86 -60 -164 -154 -193 -234 -763 -822
-1072 -1106 -463 -425 -877 -722 -1193 -856 -107 -45 -238 -87 -246 -78 -6 6
109 237 221 444 848 1554 3138 4893 5760 8399 253 337 468 630 479 649 61 114
-16 259 -177 334 -60 28 -79 31 -257 44 -307 22 -387 36 -761 130 -215 54
-380 84 -461 84 -22 0 -77 -13 -121 -29z"/>
</g>
</svg>
